<?xml version="1.0" encoding="UTF-8"?>
<svg id="_图层_2" data-name="图层 2" xmlns="http://www.w3.org/2000/svg" viewBox="0 0 452.16 452.16">
  <defs>
    <style>
      .cls-1 {
        fill: #59b7e3;
      }

      .cls-2 {
        fill: #57b7e3;
      }

      .cls-3 {
        fill: #ed8d9b;
      }

      .cls-4 {
        fill: #ec8e9c;
      }

      .cls-5 {
        fill: #ee8f9d;
      }

      .cls-6 {
        fill: #51595c;
      }

      .cls-7 {
        fill: #58b7e4;
      }

      .cls-8 {
        fill: #fdfdfd;
      }
    </style>
  </defs>
  <g id="_图层_1-2" data-name="图层 1">
    <g>
      <path class="cls-6" d="M452.16,226.08c0,124.86-101.22,226.08-226.08,226.08S0,350.94,0,226.08,101.22,0,226.08,0s226.08,101.22,226.08,226.08ZM444.11,226.07c0-120.4-97.6-218-218-218S8.1,105.67,8.1,226.07s97.6,218,218,218,218-97.6,218-218Z"/>
      <path class="cls-8" d="M444.11,226.07c0,120.4-97.6,218-218,218S8.1,346.48,8.1,226.07,105.71,8.07,226.11,8.07s218,97.6,218,218ZM258.24,100.59H122.74c-5.78,7.52-12.97,15.9-15.5,25h150c1.7-8.46,2.94-16.4,1-25ZM291.24,100.59h-25v18.5c0,35.36-62.22,70.24-84.51,94.49-34.12,37.09-46.29,85.84-35,135.02,1.93,8.43,4.46,17.6,9.01,24.99h25.5c-19.47-40.55-19.3-90.23,6.59-127.91,29.45-42.86,86.61-58.7,100.69-113.31.63-2.45,2.72-10.47,2.72-12.28v-19.5ZM229.24,373.59c-19.01-32.58-24-73.64-1.22-105.72,15.91-22.41,39.37-34.67,59.24-52.76,29.32-26.71,48.39-59.3,50.03-99.97.17-4.34.89-11.25-1.54-14.54h-23l-1.39,1.58c2.87,25.5-6.01,53.35-21.28,73.75-24.6,32.86-66.37,49.14-87.64,85.36-20.69,35.24-18.83,76.24-1.19,112.31h28ZM171.24,146.59h-74.5l-11.5,25h61v80l17.17-27.33,7.83-9.17v-68.5ZM244.24,146.59h-51v45c1.76.44,2-.74,3-1.5,6.38-4.82,12.62-10.11,18.88-15.12,6.92-5.54,23.66-17.87,28.16-24.84.8-1.23,1.23-1.99.95-3.55ZM336.24,294.09v-134.5l-11.19,22.31-13.79,19.21c-1.78,29.21,2.32,61.07-.04,89.96-3.59,44.01-44.05,65.91-85,57.03,2.36,9.66,7.07,18.91,13.68,26.33,32.95,1.38,64.11-11.38,81.97-39.71,6.76-10.73,13.21-28.03,14.37-40.63ZM223.25,293.59c-1.6,9.05-3.98,18.03-2.85,27.34,17.57,13.04,46.77,8.91,60.37-8.31,6.57-8.32,8.77-19.11,9.46-29.54,1.28-19.39-.63-40.08-1-59.49l-23.83,18.66c-2.37,14.27,4.78,45.9-5.63,56.37-7.18,7.22-21.82,6.29-29.86.8l-6.66-5.83Z"/>
      <g>
        <path class="cls-5" d="M229.24,373.59h-28c-17.64-36.06-19.49-77.07,1.19-112.31,21.27-36.23,63.03-52.5,87.64-85.36,15.27-20.4,24.15-48.26,21.28-73.75l1.39-1.58h23c2.43,3.3,1.72,10.21,1.54,14.54-1.64,40.68-20.71,73.26-50.03,99.97-19.86,18.09-43.32,30.35-59.24,52.76-22.78,32.08-17.79,73.14,1.22,105.72Z"/>
        <path class="cls-7" d="M291.24,100.59v19.5c0,1.81-2.09,9.83-2.72,12.28-14.08,54.61-71.24,70.45-100.69,113.31-25.89,37.68-26.06,87.36-6.59,127.91h-25.5c-4.55-7.39-7.08-16.56-9.01-24.99-11.3-49.19.88-97.93,35-135.02,22.3-24.24,84.51-59.13,84.51-94.49v-18.5h25Z"/>
        <path class="cls-4" d="M336.24,294.09c-1.17,12.6-7.61,29.9-14.37,40.63-17.85,28.32-49.02,41.09-81.97,39.71-6.6-7.42-11.32-16.66-13.68-26.33,40.94,8.88,81.4-13.02,85-57.03,2.36-28.89-1.75-60.75.04-89.96l13.79-19.21,11.19-22.31v134.5Z"/>
        <path class="cls-1" d="M258.24,100.59c1.94,8.6.7,16.54-1,25H107.24c2.53-9.1,9.72-17.48,15.5-25h135.5Z"/>
        <polygon class="cls-2" points="171.24 146.59 171.24 215.09 163.41 224.26 146.24 251.59 146.24 171.59 85.24 171.59 96.74 146.59 171.24 146.59"/>
        <path class="cls-3" d="M223.25,293.59l6.66,5.83c8.05,5.49,22.69,6.42,29.86-.8,10.41-10.47,3.26-42.1,5.63-56.37l23.83-18.66c.37,19.41,2.28,40.1,1,59.49-.69,10.42-2.89,21.21-9.46,29.54-13.6,17.22-42.8,21.36-60.37,8.31-1.13-9.31,1.25-18.29,2.85-27.34Z"/>
        <path class="cls-2" d="M244.24,146.59c.27,1.56-.15,2.31-.95,3.55-4.5,6.97-21.25,19.3-28.16,24.84-6.25,5.01-12.5,10.3-18.88,15.12-1,.76-1.25,1.94-3,1.5v-45h51Z"/>
      </g>
    </g>
  </g>
</svg>